<svg width="19" height="27" viewBox="0 0 19 27" fill="none" xmlns="http://www.w3.org/2000/svg">
<path d="M18.9671 16.5762C18.8025 17.4413 16.9815 18.4144 16.1697 16.9547C15.5006 15.7436 13.6467 12.9539 13.0323 12.024L7.37183 1.94629C6.34065 0.118895 4.00404 -0.540697 2.15012 0.475723C-0.383949 1.94629 0.0219399 4.044 0.0219399 9.55862C0.18649 8.69358 2.15012 8.25025 2.96189 9.71C3.77367 11.1698 11.6721 25.205 11.6721 25.205C12.7032 27.0324 15.7309 27.2595 16.9376 26.7296C18.0566 26.243 18.7367 25.0644 18.8464 23.8101C19.1316 22.3396 18.9122 20.0905 18.9671 16.5762Z" fill="url(#paint0_linear_2022_66)"/>
<defs>
<linearGradient id="paint0_linear_2022_66" x1="2.31761" y1="1.55888" x2="16.7878" y2="25.4349" gradientUnits="userSpaceOnUse">
<stop stop-color="#FFD403"/>
<stop offset="1" stop-color="#2F5B0B"/>
</linearGradient>
</defs>
</svg>
